<svg id="Capa_1" data-name="Capa 1" xmlns="http://www.w3.org/2000/svg" viewBox="0 0 413.74 289.82"><path d="M200.59,89.82c0-16.57,13.18-31,29.75-31H430.52v45L338,103.7q0,122.06-.08,244.1H293l.12-244.1-91.08.06" transform="translate(-200.59 -58.19)"/><path d="M482.54,58.2l-83,.6c-5-.24-15.36.09-22.24,7.16-5.28,5.42-6.4,14-7.79,23.26a94.21,94.21,0,0,0-1.05,14.5c24.11-.41,45.09-.27,62.08,0,56.34,1,84.85,3.09,102.78,16.57,34.43,25.87,36,73.52,36.14,81.23.16,9.69.73,44.86-24.84,71.64-21.8,22.83-50.81,27.22-56.52,28.08-7.76,1.17-20.77,1.29-46.8,1.54-11.33.11-20.67.06-27,0,.16-10,.22-18.15.25-24.08,0-5.74,0-11.41,0-16.7V200.48c0-25.54,0-31.51,0-46.44,0-6.73,0-12.18,0-15.48-5.83,2.47-21.51,9.91-32.76,25.92,0,0-10.53,15-12.39,30.93l0,.11c-.05.59,0,2.29,0,34.48v54c0,20.69.07,26.43,0,40.32-.06,10-.15,18.19-.21,23.58H468.4c4.8,0,9.6-.13,14.4,0,2.92.07,6.8.22,12.22,0,0,0,2.43-.09,4.78-.31a117.61,117.61,0,0,0,28.21-6.3A129.73,129.73,0,0,0,564.29,322a125,125,0,0,0,28.31-30c11.74-17.66,15.75-33.77,17.86-42.58,4.06-17,4-30.17,3.83-46.78-.08-10-.22-21-2.69-35.38a177,177,0,0,0-11.68-40c-2.81-6.41-11.11-25.3-24.77-39.28C556.78,69.2,532.57,57.84,482.54,58.2Z" transform="translate(-200.59 -58.19)"/></svg>